<svg width="20" height="20" viewBox="0 0 20 20" fill="none" xmlns="http://www.w3.org/2000/svg">
<path d="M10 15C11.3261 15 12.5979 14.4732 13.5355 13.5355C14.4732 12.5979 15 11.3261 15 10C15 8.67392 14.4732 7.40215 13.5355 6.46447C12.5979 5.52678 11.3261 5 10 5C8.67392 5 7.40215 5.52678 6.46447 6.46447C5.52678 7.40215 5 8.67392 5 10C5 11.3261 5.52678 12.5979 6.46447 13.5355C7.40215 14.4732 8.67392 15 10 15ZM10 4C10.2652 4 10.5196 3.89464 10.7071 3.70711C10.8946 3.51957 11 3.26522 11 3V1C11 0.734784 10.8946 0.48043 10.7071 0.292893C10.5196 0.105357 10.2652 0 10 0C9.73478 0 9.48043 0.105357 9.29289 0.292893C9.10536 0.48043 9 0.734784 9 1V3C9 3.26522 9.10536 3.51957 9.29289 3.70711C9.48043 3.89464 9.73478 4 10 4ZM10 16C9.73478 16 9.48043 16.1054 9.29289 16.2929C9.10536 16.4804 9 16.7348 9 17V19C9 19.2652 9.10536 19.5196 9.29289 19.7071C9.48043 19.8946 9.73478 20 10 20C10.2652 20 10.5196 19.8946 10.7071 19.7071C10.8946 19.5196 11 19.2652 11 19V17C11 16.7348 10.8946 16.4804 10.7071 16.2929C10.5196 16.1054 10.2652 16 10 16ZM4.343 5.757C4.5316 5.93916 4.7842 6.03995 5.0464 6.03767C5.3086 6.0354 5.55941 5.93023 5.74482 5.74482C5.93023 5.55941 6.0354 5.3086 6.03767 5.0464C6.03995 4.7842 5.93916 4.5316 5.757 4.343L4.343 2.929C4.1544 2.74684 3.9018 2.64605 3.6396 2.64833C3.3774 2.6506 3.12659 2.75577 2.94118 2.94118C2.75577 3.12659 2.6506 3.3774 2.64833 3.6396C2.64605 3.9018 2.74684 4.1544 2.929 4.343L4.343 5.757ZM15.657 14.243C15.4684 14.0608 15.2158 13.96 14.9536 13.9623C14.6914 13.9646 14.4406 14.0698 14.2552 14.2552C14.0698 14.4406 13.9646 14.6914 13.9623 14.9536C13.96 15.2158 14.0608 15.4684 14.243 15.657L15.657 17.071C15.8456 17.2532 16.0982 17.354 16.3604 17.3517C16.6226 17.3494 16.8734 17.2442 17.0588 17.0588C17.2442 16.8734 17.3494 16.6226 17.3517 16.3604C17.354 16.0982 17.2532 15.8456 17.071 15.657L15.657 14.243ZM4 10C4 9.73478 3.89464 9.48043 3.70711 9.29289C3.51957 9.10536 3.26522 9 3 9H1C0.734784 9 0.48043 9.10536 0.292893 9.29289C0.105357 9.48043 0 9.73478 0 10C0 10.2652 0.105357 10.5196 0.292893 10.7071C0.48043 10.8946 0.734784 11 1 11H3C3.26522 11 3.51957 10.8946 3.70711 10.7071C3.89464 10.5196 4 10.2652 4 10ZM19 9H17C16.7348 9 16.4804 9.10536 16.2929 9.29289C16.1054 9.48043 16 9.73478 16 10C16 10.2652 16.1054 10.5196 16.2929 10.7071C16.4804 10.8946 16.7348 11 17 11H19C19.2652 11 19.5196 10.8946 19.7071 10.7071C19.8946 10.5196 20 10.2652 20 10C20 9.73478 19.8946 9.48043 19.7071 9.29289C19.5196 9.10536 19.2652 9 19 9ZM4.343 14.243L2.929 15.657C2.83349 15.7492 2.75731 15.8596 2.7049 15.9816C2.65249 16.1036 2.6249 16.2348 2.62375 16.3676C2.6226 16.5004 2.6479 16.6321 2.69818 16.755C2.74846 16.8778 2.82271 16.9895 2.9166 17.0834C3.0105 17.1773 3.12215 17.2515 3.24505 17.3018C3.36794 17.3521 3.49962 17.3774 3.6324 17.3763C3.76518 17.3751 3.8964 17.3475 4.0184 17.2951C4.14041 17.2427 4.25075 17.1665 4.343 17.071L5.757 15.657C5.93916 15.4684 6.03995 15.2158 6.03767 14.9536C6.0354 14.6914 5.93023 14.4406 5.74482 14.2552C5.55941 14.0698 5.3086 13.9646 5.0464 13.9623C4.7842 13.96 4.5316 14.0608 4.343 14.243ZM14.95 6.05C15.2152 6.04994 15.4695 5.94455 15.657 5.757L17.071 4.343C17.1665 4.25075 17.2427 4.14041 17.2951 4.0184C17.3475 3.8964 17.3751 3.76518 17.3763 3.6324C17.3774 3.49962 17.3521 3.36794 17.3018 3.24505C17.2515 3.12215 17.1773 3.0105 17.0834 2.9166C16.9895 2.82271 16.8778 2.74846 16.755 2.69818C16.6321 2.6479 16.5004 2.6226 16.3676 2.62375C16.2348 2.6249 16.1036 2.65249 15.9816 2.7049C15.8596 2.75731 15.7492 2.83349 15.657 2.929L14.243 4.343C14.1032 4.48285 14.008 4.66102 13.9694 4.85497C13.9308 5.04892 13.9507 5.24995 14.0263 5.43265C14.102 5.61535 14.2301 5.77152 14.3945 5.8814C14.559 5.99129 14.7522 6.04996 14.95 6.05Z" fill="#1E1F24"/>
</svg>
