<svg width="18" height="19" viewBox="0 0 18 19" fill="none" xmlns="http://www.w3.org/2000/svg">
<path d="M17.733 13.25C17.6458 13.099 17.5207 12.9734 17.37 12.8857C17.2193 12.798 17.0483 12.7512 16.874 12.75C15.5623 12.7407 14.2761 12.387 13.1442 11.7243C12.0122 11.0616 11.0741 10.1132 10.4239 8.97398C9.77374 7.83479 9.4342 6.54479 9.43929 5.23311C9.44438 3.92144 9.79394 2.63411 10.453 1.5C10.5351 1.35172 10.5782 1.185 10.5782 1.0155C10.5782 0.846001 10.5351 0.679281 10.453 0.531003C10.3694 0.38008 10.2494 0.252446 10.1039 0.159709C9.95843 0.0669714 9.79207 0.0120718 9.61997 2.55849e-06H9.50697C7.83893 -0.00122146 6.19997 0.436768 4.75491 1.26993C3.30985 2.10308 2.10962 3.30204 1.27494 4.74622C0.440258 6.1904 0.000537636 7.8289 4.92705e-07 9.49694C-0.000536651 11.165 0.438128 12.8038 1.27188 14.2485C2.10563 15.6932 3.30508 16.8929 4.74961 17.727C6.19413 18.5611 7.83281 19.0002 9.50085 19C11.1689 18.9998 12.8075 18.5605 14.2519 17.7262C15.6962 16.8918 16.8955 15.6919 17.729 14.247C17.8168 14.0957 17.8634 13.924 17.8641 13.749C17.8648 13.5741 17.8196 13.402 17.733 13.25Z" fill="#1E1F24"/>
</svg>
