<?xml version="1.0" standalone="no"?>
<!DOCTYPE svg PUBLIC "-//W3C//DTD SVG 20010904//EN"
 "http://www.w3.org/TR/2001/REC-SVG-20010904/DTD/svg10.dtd">
<svg version="1.0" xmlns="http://www.w3.org/2000/svg"
 width="288.000000pt" height="288.000000pt" viewBox="0 0 288.000000 288.000000"
 preserveAspectRatio="xMidYMid meet">

<g transform="translate(0.000000,288.000000) scale(0.100000,-0.100000)"
fill="#000000" stroke="none">
<path d="M1265 2838 c-148 -16 -345 -77 -493 -152 -233 -118 -490 -375 -608
-608 -179 -354 -211 -758 -88 -1125 129 -385 416 -699 790 -863 121 -53 164
-60 193 -31 20 20 21 32 21 171 l0 150 -27 -7 c-16 -4 -73 -7 -128 -7 -181 2
-261 51 -340 209 -37 74 -62 108 -107 150 -33 30 -63 55 -68 55 -5 0 -15 10
-21 22 -23 44 46 63 119 33 66 -28 109 -65 163 -141 101 -142 210 -181 369
-129 43 14 46 17 58 68 6 28 25 71 41 94 32 45 31 53 -9 53 -49 0 -215 47
-285 81 -101 49 -204 153 -250 252 -63 136 -89 323 -65 467 14 83 61 195 107
252 l30 38 -14 62 c-25 103 2 306 42 322 44 17 199 -35 314 -106 l66 -40 95
18 c133 26 407 26 540 0 l95 -18 66 40 c115 71 270 123 314 106 8 -4 23 -32
33 -63 20 -66 23 -238 5 -288 -11 -29 -9 -35 19 -70 36 -46 69 -109 94 -183
15 -44 19 -82 18 -190 -1 -228 -51 -367 -176 -493 -51 -52 -86 -77 -151 -107
-86 -40 -226 -80 -284 -80 -39 0 -40 -2 -10 -43 57 -76 61 -101 67 -395 5
-259 6 -274 25 -289 29 -21 78 -12 189 37 320 140 584 398 729 711 54 115 80
193 108 324 32 143 32 426 1 568 -48 218 -134 408 -262 579 -311 414 -803 625
-1325 566z"/>
<path d="M510 795 c0 -9 9 -15 21 -15 18 0 19 2 9 15 -7 8 -16 15 -21 15 -5 0
-9 -7 -9 -15z"/>
<path d="M570 741 c0 -21 26 -36 36 -20 6 11 -13 39 -27 39 -5 0 -9 -9 -9 -19z"/>
<path d="M620 666 c0 -22 29 -41 42 -28 8 8 8 15 -2 27 -16 19 -40 20 -40 1z"/>
<path d="M692 584 c4 -20 34 -41 45 -31 10 11 -11 41 -31 45 -12 3 -17 -2 -14
-14z"/>
<path d="M797 533 c-23 -22 14 -53 39 -32 11 9 11 15 3 25 -12 15 -31 18 -42
7z"/>
<path d="M1014 519 c-3 -6 -2 -15 4 -21 15 -15 46 -5 50 15 3 12 -3 17 -22 17
-14 0 -28 -5 -32 -11z"/>
<path d="M905 511 c-10 -17 4 -31 31 -31 19 0 25 5 22 18 -4 19 -43 29 -53 13z"/>
</g>
</svg>
