<?xml version="1.0" standalone="no"?>
<!DOCTYPE svg PUBLIC "-//W3C//DTD SVG 20010904//EN"
 "http://www.w3.org/TR/2001/REC-SVG-20010904/DTD/svg10.dtd">
<svg version="1.0" xmlns="http://www.w3.org/2000/svg"
 width="87.000000pt" height="163.000000pt" viewBox="0 0 87.000000 163.000000"
 preserveAspectRatio="xMidYMid meet">

<g transform="translate(0.000000,163.000000) scale(0.100000,-0.100000)"
fill="#C73E1D" stroke="none">
<path d="M295 1616 c-49 -22 -135 -122 -135 -158 0 -15 8 -17 64 -11 74 7 165
-11 318 -63 107 -36 148 -57 148 -76 0 -6 -18 -33 -40 -59 -22 -26 -45 -60
-51 -76 -32 -79 -18 -442 31 -774 26 -178 26 -195 -5 -215 -55 -36 -243 5
-421 92 -138 67 -164 107 -97 149 37 23 42 35 14 35 -88 0 -134 -101 -101
-220 27 -97 97 -163 220 -207 152 -53 272 -18 410 121 90 91 117 135 125 200
3 28 2 148 -3 266 -15 374 7 633 64 745 15 29 24 60 21 68 -9 23 -69 51 -241
114 -122 44 -258 84 -286 82 -3 0 -18 -6 -35 -13z"/>
<path d="M821 267 c-13 -16 -41 -93 -41 -113 0 -27 17 -13 43 35 27 48 35 91
18 91 -5 0 -14 -6 -20 -13z"/>
</g>
</svg>
