<?xml version="1.0" standalone="no"?>
<!DOCTYPE svg PUBLIC "-//W3C//DTD SVG 20010904//EN"
 "http://www.w3.org/TR/2001/REC-SVG-20010904/DTD/svg10.dtd">
<svg version="1.0" xmlns="http://www.w3.org/2000/svg"
 width="128.000000pt" height="128.000000pt" viewBox="0 0 128.000000 128.000000"
 preserveAspectRatio="xMidYMid meet">

<g transform="translate(0.000000,128.000000) scale(0.100000,-0.100000)"
fill="#C73E1D" stroke="none">
<path d="M281 1060 c-39 -28 -85 -69 -101 -92 -57 -78 -63 -117 -68 -409 -4
-299 -3 -304 65 -356 35 -27 42 -28 160 -31 110 -3 128 -1 168 18 26 13 53 36
67 58 21 34 23 49 23 167 0 120 -2 133 -24 169 -39 63 -81 76 -248 76 l-143 0
0 28 c1 60 21 165 39 200 22 43 66 85 134 131 47 32 58 56 35 79 -19 19 -31
15 -107 -38z"/>
<path d="M875 1071 c-163 -105 -194 -198 -195 -582 0 -183 7 -217 54 -267 42
-45 83 -54 218 -50 129 3 151 12 196 78 20 30 22 45 22 165 0 120 -2 135 -22
165 -48 70 -63 75 -234 78 l-154 3 0 41 c0 76 21 166 50 211 17 28 54 61 98
91 75 50 84 61 70 89 -13 26 -37 21 -103 -22z"/>
</g>
</svg>
